<svg xmlns="http://www.w3.org/2000/svg" xml:space="preserve" width="200" height="100" style="shape-rendering:geometricPrecision;text-rendering:geometricPrecision;image-rendering:optimizeQuality;fill-rule:evenodd;clip-rule:evenodd" viewBox="0 0 6.827 6.827"><defs><style>.fil0{fill:#333;fill-rule:nonzero}</style></defs><g id="Layer_x0020_1"><path class="fil0" d="M3.413.96c.678 0 1.291.275 1.735.719.444.444.719 1.057.719 1.734 0 .678-.275 1.291-.719 1.735a2.446 2.446 0 0 1-1.735.719c-.677 0-1.29-.275-1.734-.719A2.446 2.446 0 0 1 .96 3.413c0-.677.275-1.29.719-1.734A2.446 2.446 0 0 1 3.413.96zm1.584.87a2.233 2.233 0 0 0-1.584-.657c-.618 0-1.178.251-1.584.656a2.233 2.233 0 0 0-.656 1.584c0 .619.251 1.179.656 1.584.406.406.966.656 1.584.656.619 0 1.179-.25 1.584-.656.406-.405.656-.965.656-1.584 0-.618-.25-1.178-.656-1.584z"/><path class="fil0" d="M3.413 1.707c.472 0 .898.19 1.207.5a1.701 1.701 0 0 1 0 2.414c-.309.308-.735.499-1.207.499-.47 0-.898-.191-1.206-.5a1.701 1.701 0 0 1-.5-1.207c0-.47.19-.898.5-1.206.308-.31.735-.5 1.206-.5zm1.056.65a1.489 1.489 0 0 0-1.056-.437A1.489 1.489 0 0 0 1.92 3.413a1.489 1.489 0 0 0 1.493 1.493 1.489 1.489 0 0 0 1.493-1.493c0-.412-.166-.785-.437-1.056z"/><path class="fil0" d="M3.52 1.067v.749h-.213v-.75zM3.52 5.013v.75h-.213v-.75zM5.761 3.521h-.749v-.213h.75zM1.815 3.521h-.75v-.213h.75zM5.127 1.848l-.58.474-.135-.164.58-.475z"/><path d="M2.207 2.207c.285-.286.67-.47 1.1-.497v-.534a2.233 2.233 0 0 0-1.478.653 2.233 2.233 0 0 0-.653 1.479h.534c.026-.43.21-.816.497-1.101z" style="fill:#feca5f"/><path d="M3.52 1.176v.534c.368.023.705.162.973.382l.42-.343a2.231 2.231 0 0 0-1.393-.573z" style="fill:#f39cc3"/><path d="m5.064 1.9-.413.338a1.7 1.7 0 0 1 .466 1.07h.534a2.231 2.231 0 0 0-.587-1.409z" style="fill:#f19a7b"/><path d="M5.117 3.521a1.701 1.701 0 0 1-.497 1.1c-.285.284-.671.47-1.1.496v.534a2.233 2.233 0 0 0 1.477-.654c.382-.381.626-.9.654-1.476h-.534z" style="fill:#ffd3b3"/><path d="M3.307 5.117a1.701 1.701 0 0 1-1.1-.497 1.701 1.701 0 0 1-.497-1.099h-.534c.027.576.272 1.095.653 1.476.382.382.902.627 1.478.654v-.534z" style="fill:#9dd5c0"/><path d="M2.357 4.47c.27.27.644.437 1.056.437.413 0 .786-.167 1.056-.438a1.489 1.489 0 0 0 0-2.112 1.489 1.489 0 0 0-1.056-.437A1.489 1.489 0 0 0 1.92 3.413c0 .413.167.786.437 1.056z" style="fill:#ebe5df"/></g><path style="fill:none" d="M0 0h6.827v6.827H0z"/></svg>